<mxfile host="app.diagrams.net" agent="Mozilla/5.0 (Windows NT 10.0; Win64; x64) AppleWebKit/537.36 (KHTML, like Gecko) Chrome/137.0.0.0 Safari/537.36" version="27.1.3">
  <diagram id="sK6u0aQZh5gKvJ8_Eq7y" name="Página-2">
    <mxGraphModel dx="1603" dy="822" grid="1" gridSize="10" guides="1" tooltips="1" connect="1" arrows="1" fold="1" page="1" pageScale="1" pageWidth="827" pageHeight="1169" math="0" shadow="0">
      <root>
        <mxCell id="0" />
        <mxCell id="1" parent="0" />
        <mxCell id="-5TUY3w5zbnfjcx4eBSF-23" value="" style="rounded=0;whiteSpace=wrap;html=1;" parent="1" vertex="1">
          <mxGeometry x="290" y="120" width="1060" height="880" as="geometry" />
        </mxCell>
        <mxCell id="-5TUY3w5zbnfjcx4eBSF-76" value="" style="rounded=0;whiteSpace=wrap;html=1;" parent="1" vertex="1">
          <mxGeometry x="400" y="150" width="920" height="800" as="geometry" />
        </mxCell>
        <mxCell id="-5TUY3w5zbnfjcx4eBSF-77" style="rounded=0;orthogonalLoop=1;jettySize=auto;html=1;" parent="1" source="-5TUY3w5zbnfjcx4eBSF-79" target="-5TUY3w5zbnfjcx4eBSF-89" edge="1">
          <mxGeometry relative="1" as="geometry" />
        </mxCell>
        <mxCell id="-5TUY3w5zbnfjcx4eBSF-78" style="rounded=0;orthogonalLoop=1;jettySize=auto;html=1;" parent="1" source="-5TUY3w5zbnfjcx4eBSF-79" target="-5TUY3w5zbnfjcx4eBSF-92" edge="1">
          <mxGeometry relative="1" as="geometry" />
        </mxCell>
        <mxCell id="dsdEelzjTaVAezbVnpXR-1" style="rounded=0;orthogonalLoop=1;jettySize=auto;html=1;" parent="1" source="-5TUY3w5zbnfjcx4eBSF-79" target="-5TUY3w5zbnfjcx4eBSF-113" edge="1">
          <mxGeometry relative="1" as="geometry" />
        </mxCell>
        <mxCell id="-5TUY3w5zbnfjcx4eBSF-79" value="Administrador" style="shape=umlActor;verticalLabelPosition=bottom;verticalAlign=top;html=1;outlineConnect=0;" parent="1" vertex="1">
          <mxGeometry x="330" y="230" width="40" height="80" as="geometry" />
        </mxCell>
        <mxCell id="-5TUY3w5zbnfjcx4eBSF-82" style="edgeStyle=none;rounded=0;orthogonalLoop=1;jettySize=auto;html=1;" parent="1" source="-5TUY3w5zbnfjcx4eBSF-84" target="-5TUY3w5zbnfjcx4eBSF-118" edge="1">
          <mxGeometry relative="1" as="geometry" />
        </mxCell>
        <mxCell id="dX3sOXWLlkZk12BEzYUn-5" style="rounded=0;orthogonalLoop=1;jettySize=auto;html=1;" parent="1" source="-5TUY3w5zbnfjcx4eBSF-84" target="-5TUY3w5zbnfjcx4eBSF-110" edge="1">
          <mxGeometry relative="1" as="geometry" />
        </mxCell>
        <mxCell id="Xzldeslvg_ODg2iFyFIF-1" style="rounded=0;orthogonalLoop=1;jettySize=auto;html=1;" edge="1" parent="1" source="-5TUY3w5zbnfjcx4eBSF-84" target="-5TUY3w5zbnfjcx4eBSF-93">
          <mxGeometry relative="1" as="geometry" />
        </mxCell>
        <mxCell id="Xzldeslvg_ODg2iFyFIF-4" style="rounded=0;orthogonalLoop=1;jettySize=auto;html=1;" edge="1" parent="1" source="-5TUY3w5zbnfjcx4eBSF-84" target="-5TUY3w5zbnfjcx4eBSF-124">
          <mxGeometry relative="1" as="geometry" />
        </mxCell>
        <mxCell id="-5TUY3w5zbnfjcx4eBSF-84" value="Lider del proyecto" style="shape=umlActor;verticalLabelPosition=bottom;verticalAlign=top;html=1;outlineConnect=0;" parent="1" vertex="1">
          <mxGeometry x="320" y="530" width="40" height="80" as="geometry" />
        </mxCell>
        <mxCell id="-5TUY3w5zbnfjcx4eBSF-85" style="rounded=0;orthogonalLoop=1;jettySize=auto;html=1;" parent="1" source="-5TUY3w5zbnfjcx4eBSF-86" target="-5TUY3w5zbnfjcx4eBSF-107" edge="1">
          <mxGeometry relative="1" as="geometry" />
        </mxCell>
        <mxCell id="-5TUY3w5zbnfjcx4eBSF-132" style="edgeStyle=none;rounded=0;orthogonalLoop=1;jettySize=auto;html=1;endArrow=block;endFill=0;endSize=10;" parent="1" source="-5TUY3w5zbnfjcx4eBSF-84" target="-5TUY3w5zbnfjcx4eBSF-86" edge="1">
          <mxGeometry relative="1" as="geometry">
            <mxPoint x="370" y="840" as="sourcePoint" />
            <mxPoint x="370" y="640" as="targetPoint" />
          </mxGeometry>
        </mxCell>
        <mxCell id="-5TUY3w5zbnfjcx4eBSF-86" value="Desarrollador" style="shape=umlActor;verticalLabelPosition=bottom;verticalAlign=top;html=1;outlineConnect=0;" parent="1" vertex="1">
          <mxGeometry x="320" y="850" width="40" height="80" as="geometry" />
        </mxCell>
        <mxCell id="-5TUY3w5zbnfjcx4eBSF-87" style="edgeStyle=none;rounded=0;orthogonalLoop=1;jettySize=auto;html=1;dashed=1;dashPattern=8 8;" parent="1" source="-5TUY3w5zbnfjcx4eBSF-89" target="-5TUY3w5zbnfjcx4eBSF-121" edge="1">
          <mxGeometry relative="1" as="geometry" />
        </mxCell>
        <mxCell id="-5TUY3w5zbnfjcx4eBSF-88" value="&amp;lt;&amp;lt; include &amp;gt;&amp;gt;" style="edgeLabel;html=1;align=center;verticalAlign=middle;resizable=0;points=[];" parent="-5TUY3w5zbnfjcx4eBSF-87" vertex="1" connectable="0">
          <mxGeometry x="-0.0395" y="1" relative="1" as="geometry">
            <mxPoint as="offset" />
          </mxGeometry>
        </mxCell>
        <mxCell id="-5TUY3w5zbnfjcx4eBSF-89" value="CU02: Administrar acceso al sistema" style="ellipse;whiteSpace=wrap;html=1;" parent="1" vertex="1">
          <mxGeometry x="570" y="200" width="120" height="60" as="geometry" />
        </mxCell>
        <mxCell id="-5TUY3w5zbnfjcx4eBSF-90" style="edgeStyle=none;rounded=0;orthogonalLoop=1;jettySize=auto;html=1;dashed=1;dashPattern=8 8;" parent="1" source="-5TUY3w5zbnfjcx4eBSF-92" target="-5TUY3w5zbnfjcx4eBSF-121" edge="1">
          <mxGeometry relative="1" as="geometry" />
        </mxCell>
        <mxCell id="-5TUY3w5zbnfjcx4eBSF-91" value="&amp;lt;&amp;lt; include &amp;gt;&amp;gt;" style="edgeLabel;html=1;align=center;verticalAlign=middle;resizable=0;points=[];" parent="-5TUY3w5zbnfjcx4eBSF-90" vertex="1" connectable="0">
          <mxGeometry x="-0.1476" relative="1" as="geometry">
            <mxPoint as="offset" />
          </mxGeometry>
        </mxCell>
        <mxCell id="-5TUY3w5zbnfjcx4eBSF-92" value="CU03: Administrar proyectos" style="ellipse;whiteSpace=wrap;html=1;" parent="1" vertex="1">
          <mxGeometry x="570" y="290" width="120" height="60" as="geometry" />
        </mxCell>
        <mxCell id="Xzldeslvg_ODg2iFyFIF-2" style="rounded=0;orthogonalLoop=1;jettySize=auto;html=1;dashed=1;dashPattern=8 8;" edge="1" parent="1" source="-5TUY3w5zbnfjcx4eBSF-93" target="-5TUY3w5zbnfjcx4eBSF-121">
          <mxGeometry relative="1" as="geometry" />
        </mxCell>
        <mxCell id="-5TUY3w5zbnfjcx4eBSF-93" value="CU11: Exportar archivos" style="ellipse;whiteSpace=wrap;html=1;" parent="1" vertex="1">
          <mxGeometry x="440" y="470" width="120" height="60" as="geometry" />
        </mxCell>
        <mxCell id="-5TUY3w5zbnfjcx4eBSF-101" style="edgeStyle=none;rounded=0;orthogonalLoop=1;jettySize=auto;html=1;dashed=1;dashPattern=8 8;" parent="1" source="-5TUY3w5zbnfjcx4eBSF-107" target="-5TUY3w5zbnfjcx4eBSF-114" edge="1">
          <mxGeometry relative="1" as="geometry" />
        </mxCell>
        <mxCell id="-5TUY3w5zbnfjcx4eBSF-102" value="&amp;lt;&amp;lt; extends &amp;gt;&amp;gt;" style="edgeLabel;html=1;align=center;verticalAlign=middle;resizable=0;points=[];" parent="-5TUY3w5zbnfjcx4eBSF-101" vertex="1" connectable="0">
          <mxGeometry x="0.0329" y="-1" relative="1" as="geometry">
            <mxPoint x="-1" y="-7" as="offset" />
          </mxGeometry>
        </mxCell>
        <mxCell id="-5TUY3w5zbnfjcx4eBSF-103" style="edgeStyle=none;rounded=0;orthogonalLoop=1;jettySize=auto;html=1;dashed=1;dashPattern=8 8;" parent="1" source="-5TUY3w5zbnfjcx4eBSF-107" target="-5TUY3w5zbnfjcx4eBSF-115" edge="1">
          <mxGeometry relative="1" as="geometry" />
        </mxCell>
        <mxCell id="-5TUY3w5zbnfjcx4eBSF-104" value="&amp;lt;&amp;lt; extends &amp;gt;&amp;gt;" style="edgeLabel;html=1;align=center;verticalAlign=middle;resizable=0;points=[];" parent="-5TUY3w5zbnfjcx4eBSF-103" vertex="1" connectable="0">
          <mxGeometry x="-0.1747" y="-3" relative="1" as="geometry">
            <mxPoint x="-1" as="offset" />
          </mxGeometry>
        </mxCell>
        <mxCell id="-5TUY3w5zbnfjcx4eBSF-105" style="edgeStyle=none;rounded=0;orthogonalLoop=1;jettySize=auto;html=1;dashed=1;dashPattern=8 8;" parent="1" source="-5TUY3w5zbnfjcx4eBSF-124" target="-5TUY3w5zbnfjcx4eBSF-121" edge="1">
          <mxGeometry relative="1" as="geometry" />
        </mxCell>
        <mxCell id="-5TUY3w5zbnfjcx4eBSF-106" value="&amp;lt;&amp;lt; include &amp;gt;&amp;gt;" style="edgeLabel;html=1;align=center;verticalAlign=middle;resizable=0;points=[];" parent="-5TUY3w5zbnfjcx4eBSF-105" vertex="1" connectable="0">
          <mxGeometry x="0.1032" relative="1" as="geometry">
            <mxPoint as="offset" />
          </mxGeometry>
        </mxCell>
        <mxCell id="D7hPwTgN9Ad0S_OiSbyl-2" style="rounded=0;orthogonalLoop=1;jettySize=auto;html=1;dashed=1;dashPattern=8 8;" parent="1" source="-5TUY3w5zbnfjcx4eBSF-107" target="D7hPwTgN9Ad0S_OiSbyl-1" edge="1">
          <mxGeometry relative="1" as="geometry" />
        </mxCell>
        <mxCell id="-5TUY3w5zbnfjcx4eBSF-107" value="CU04: Añadir&amp;nbsp;&lt;div&gt;riesgos&amp;nbsp;&lt;span style=&quot;background-color: transparent; color: light-dark(rgb(0, 0, 0), rgb(255, 255, 255));&quot;&gt;a la lista&lt;/span&gt;&lt;/div&gt;" style="ellipse;whiteSpace=wrap;html=1;" parent="1" vertex="1">
          <mxGeometry x="900" y="860" width="130" height="60" as="geometry" />
        </mxCell>
        <mxCell id="dX3sOXWLlkZk12BEzYUn-7" style="rounded=0;orthogonalLoop=1;jettySize=auto;html=1;dashed=1;dashPattern=12 12;" parent="1" source="-5TUY3w5zbnfjcx4eBSF-110" target="-5TUY3w5zbnfjcx4eBSF-107" edge="1">
          <mxGeometry relative="1" as="geometry" />
        </mxCell>
        <mxCell id="-5TUY3w5zbnfjcx4eBSF-110" value="CU05: Modificar&amp;nbsp;&lt;div&gt;lista de riesgos&lt;/div&gt;" style="ellipse;whiteSpace=wrap;html=1;" parent="1" vertex="1">
          <mxGeometry x="490" y="630" width="120" height="60" as="geometry" />
        </mxCell>
        <mxCell id="-5TUY3w5zbnfjcx4eBSF-111" style="edgeStyle=none;rounded=0;orthogonalLoop=1;jettySize=auto;html=1;dashed=1;dashPattern=8 8;" parent="1" source="-5TUY3w5zbnfjcx4eBSF-113" target="-5TUY3w5zbnfjcx4eBSF-121" edge="1">
          <mxGeometry relative="1" as="geometry" />
        </mxCell>
        <mxCell id="-5TUY3w5zbnfjcx4eBSF-112" value="&amp;lt;&amp;lt; include &amp;gt;&amp;gt;" style="edgeLabel;html=1;align=center;verticalAlign=middle;resizable=0;points=[];" parent="-5TUY3w5zbnfjcx4eBSF-111" vertex="1" connectable="0">
          <mxGeometry x="-0.0681" y="-1" relative="1" as="geometry">
            <mxPoint as="offset" />
          </mxGeometry>
        </mxCell>
        <mxCell id="-5TUY3w5zbnfjcx4eBSF-113" value="CU06: Administrar categorías de riesgos" style="ellipse;whiteSpace=wrap;html=1;" parent="1" vertex="1">
          <mxGeometry x="540" y="370" width="130" height="60" as="geometry" />
        </mxCell>
        <mxCell id="-5TUY3w5zbnfjcx4eBSF-114" value="CU07: Realizar evaluación de riesgo" style="ellipse;whiteSpace=wrap;html=1;" parent="1" vertex="1">
          <mxGeometry x="1110" y="740" width="120" height="60" as="geometry" />
        </mxCell>
        <mxCell id="-5TUY3w5zbnfjcx4eBSF-115" value="&lt;div&gt;CU08: Añadir plan&amp;nbsp;&lt;/div&gt;&lt;div&gt;de acción&lt;/div&gt;" style="ellipse;whiteSpace=wrap;html=1;" parent="1" vertex="1">
          <mxGeometry x="680" y="790" width="120" height="60" as="geometry" />
        </mxCell>
        <mxCell id="-5TUY3w5zbnfjcx4eBSF-116" style="edgeStyle=none;rounded=0;orthogonalLoop=1;jettySize=auto;html=1;dashed=1;dashPattern=8 8;" parent="1" source="-5TUY3w5zbnfjcx4eBSF-118" target="-5TUY3w5zbnfjcx4eBSF-115" edge="1">
          <mxGeometry relative="1" as="geometry" />
        </mxCell>
        <mxCell id="-5TUY3w5zbnfjcx4eBSF-117" value="&amp;lt;&amp;lt; include &amp;gt;&amp;gt;" style="edgeLabel;html=1;align=center;verticalAlign=middle;resizable=0;points=[];" parent="-5TUY3w5zbnfjcx4eBSF-116" vertex="1" connectable="0">
          <mxGeometry x="0.0542" y="1" relative="1" as="geometry">
            <mxPoint x="-4" y="-9" as="offset" />
          </mxGeometry>
        </mxCell>
        <mxCell id="dX3sOXWLlkZk12BEzYUn-6" style="rounded=0;orthogonalLoop=1;jettySize=auto;html=1;dashed=1;dashPattern=12 12;" parent="1" source="-5TUY3w5zbnfjcx4eBSF-118" target="-5TUY3w5zbnfjcx4eBSF-121" edge="1">
          <mxGeometry relative="1" as="geometry" />
        </mxCell>
        <mxCell id="-5TUY3w5zbnfjcx4eBSF-118" value="CU09: Modificar&amp;nbsp;&lt;div&gt;plan de acción&lt;/div&gt;" style="ellipse;whiteSpace=wrap;html=1;" parent="1" vertex="1">
          <mxGeometry x="500" y="720" width="120" height="60" as="geometry" />
        </mxCell>
        <mxCell id="-5TUY3w5zbnfjcx4eBSF-121" value="CU01: Autentificarse" style="ellipse;whiteSpace=wrap;html=1;" parent="1" vertex="1">
          <mxGeometry x="930" y="380" width="120" height="60" as="geometry" />
        </mxCell>
        <mxCell id="-5TUY3w5zbnfjcx4eBSF-124" value="CU10: Realizar y solicitar informes" style="ellipse;whiteSpace=wrap;html=1;" parent="1" vertex="1">
          <mxGeometry x="480" y="550" width="120" height="60" as="geometry" />
        </mxCell>
        <mxCell id="v8ho_6EPoCGN8s73HlzQ-10" style="edgeStyle=none;rounded=0;orthogonalLoop=1;jettySize=auto;html=1;dashed=1;dashPattern=8 8;" parent="1" source="-5TUY3w5zbnfjcx4eBSF-110" target="-5TUY3w5zbnfjcx4eBSF-121" edge="1">
          <mxGeometry relative="1" as="geometry">
            <mxPoint x="556" y="616" as="sourcePoint" />
            <mxPoint x="944" y="354" as="targetPoint" />
          </mxGeometry>
        </mxCell>
        <mxCell id="v8ho_6EPoCGN8s73HlzQ-11" value="&amp;lt;&amp;lt; include &amp;gt;&amp;gt;" style="edgeLabel;html=1;align=center;verticalAlign=middle;resizable=0;points=[];" parent="v8ho_6EPoCGN8s73HlzQ-10" vertex="1" connectable="0">
          <mxGeometry x="0.0383" y="-1" relative="1" as="geometry">
            <mxPoint y="-1" as="offset" />
          </mxGeometry>
        </mxCell>
        <mxCell id="v8ho_6EPoCGN8s73HlzQ-15" style="edgeStyle=none;rounded=0;orthogonalLoop=1;jettySize=auto;html=1;dashed=1;dashPattern=8 8;" parent="1" source="-5TUY3w5zbnfjcx4eBSF-107" target="-5TUY3w5zbnfjcx4eBSF-121" edge="1">
          <mxGeometry relative="1" as="geometry">
            <mxPoint x="926" y="610" as="sourcePoint" />
            <mxPoint x="974" y="360" as="targetPoint" />
            <Array as="points" />
          </mxGeometry>
        </mxCell>
        <mxCell id="v8ho_6EPoCGN8s73HlzQ-16" value="&amp;lt;&amp;lt; include &amp;gt;&amp;gt;" style="edgeLabel;html=1;align=center;verticalAlign=middle;resizable=0;points=[];" parent="v8ho_6EPoCGN8s73HlzQ-15" vertex="1" connectable="0">
          <mxGeometry x="0.0383" y="-1" relative="1" as="geometry">
            <mxPoint y="-1" as="offset" />
          </mxGeometry>
        </mxCell>
        <mxCell id="D7hPwTgN9Ad0S_OiSbyl-1" value="CU12: Realizar análisis de riesgo" style="ellipse;whiteSpace=wrap;html=1;" parent="1" vertex="1">
          <mxGeometry x="1030" y="640" width="120" height="60" as="geometry" />
        </mxCell>
        <mxCell id="D7hPwTgN9Ad0S_OiSbyl-5" value="&amp;lt;&amp;lt; extends &amp;gt;&amp;gt;" style="edgeLabel;html=1;align=center;verticalAlign=middle;resizable=0;points=[];" parent="1" vertex="1" connectable="0">
          <mxGeometry x="1029.9973848297927" y="770.0029337339619" as="geometry" />
        </mxCell>
        <mxCell id="dX3sOXWLlkZk12BEzYUn-8" value="&amp;lt;&amp;lt; include &amp;gt;&amp;gt;" style="edgeLabel;html=1;align=center;verticalAlign=middle;resizable=0;points=[];" parent="1" vertex="1" connectable="0">
          <mxGeometry x="723.998948358475" y="719.9998328742906" as="geometry" />
        </mxCell>
        <mxCell id="dX3sOXWLlkZk12BEzYUn-10" value="&amp;lt;&amp;lt; include &amp;gt;&amp;gt;" style="edgeLabel;html=1;align=center;verticalAlign=middle;resizable=0;points=[];" parent="1" vertex="1" connectable="0">
          <mxGeometry x="759.998948358475" y="589.9998328742906" as="geometry" />
        </mxCell>
        <mxCell id="Xzldeslvg_ODg2iFyFIF-3" value="&amp;lt;&amp;lt; include &amp;gt;&amp;gt;" style="edgeLabel;html=1;align=center;verticalAlign=middle;resizable=0;points=[];" vertex="1" connectable="0" parent="1">
          <mxGeometry x="724" y="460" as="geometry" />
        </mxCell>
      </root>
    </mxGraphModel>
  </diagram>
</mxfile>
